# xmcd
# 
# Track frame offsets:
#     150
#     12758
#     31779
#     44658
#     54499
#     65984
#     79306
#     92831
#     106959
#     121456
#     142277
#     157068
#     170478
#     184910
#     200849
#     215344
#     229169
#     241475
#     256078
#     267507
#     281603
#     294922
#     309183
#     324281
# 
# Disc length: 4512
# 
# Revision: 0
# Processed by: cddbd v1.5.2PL0 Copyright (c) Steve Scherf et al.
# Submitted via: BonkEnc v1.0.8
# 
DISCID=6a119e18
DTITLE=Various Artist - Bottleneck Blues Guitar
DYEAR=0
DGENRE=Blues
TTITLE0=Black Ace - Black Ace
TTITLE1=Leadbelly - C.C. Rider
TTITLE2=Robert Johnson - Come On In My Kitchen
TTITLE3=Son House - County Farm Blues
TTITLE4=Robert Johnson - Cross Road Blues
TTITLE5=Tampa Red - Denver Blues
TTITLE6=Oscar "Buddy" Woods - Don't Sell It - Don't Give It Away
TTITLE7=Son House - Dry Spell Blues
TTITLE8=Charlie Patton - High Sheriff Blues
TTITLE9=Blind Willie McTell - I Got To Cross That River Jordan
TTITLE10=Barbecue Bob - It's Just Too Bad
TTITLE11=Kokomo Arnold - Mean Old Twister
TTITLE12=Kokomo Arnold - Milk Cow Blues
TTITLE13=Bumble Bee Slim - No Woman No Nickel
TTITLE14=Gus Cannon - Poor Boy, Long Ways From Home
TTITLE15=Hambone Willie Newbern - Roll And Tumble Blues
TTITLE16=Ramblin' Thomas - So Lonsome
TTITLE17=Charlie Patton - A Spoonful Blues
TTITLE18=Robert Johnson - Walking Blues
TTITLE19=King Solomon Hill - Whoopie Blues
TTITLE20=Barbecue Bob - Yo Yo Blues
TTITLE21=Bo Weavil Jackson - You Can't Keep No Brown
TTITLE22=Tampa Red - You Got To Reap What You Sow
TTITLE23=Blind Willie Davis - Your Enemy Cannot Harm You
EXTD=Music for the book by Woody Mann
EXTT0=
EXTT1=
EXTT2=
EXTT3=
EXTT4=
EXTT5=
EXTT6=
EXTT7=
EXTT8=
EXTT9=
EXTT10=
EXTT11=
EXTT12=
EXTT13=
EXTT14=
EXTT15=
EXTT16=
EXTT17=
EXTT18=
EXTT19=
EXTT20=
EXTT21=
EXTT22=
EXTT23=
PLAYORDER=
